<?xml version="1.0" standalone="no"?>
<!DOCTYPE svg PUBLIC "-//W3C//DTD SVG 20010904//EN"
 "http://www.w3.org/TR/2001/REC-SVG-20010904/DTD/svg10.dtd">
<svg version="1.0" xmlns="http://www.w3.org/2000/svg"
 width="196.000000pt" height="198.000000pt" viewBox="0 0 196.000000 198.000000"
 preserveAspectRatio="xMidYMid meet">
<metadata>
Created by potrace 1.16, written by Peter Selinger 2001-2019
</metadata>
<g transform="translate(0.000000,198.000000) scale(0.100000,-0.100000)"
fill="#000000" stroke="none">
<path d="M261 1823 c-24 -9 -65 -37 -92 -63 l-49 -48 -1 -746 c0 -745 0 -746
22 -775 11 -15 40 -39 62 -52 l42 -24 745 0 745 0 45 25 c27 15 53 41 67 65
l23 40 0 735 0 735 -23 40 c-14 26 -37 48 -67 63 l-44 22 -716 -1 c-618 0
-721 -3 -759 -16z m965 -460 c121 -70 191 -118 210 -142 l29 -36 3 -207 c5
-285 15 -266 -205 -396 -223 -132 -249 -145 -282 -137 -29 7 -237 123 -344
191 -106 69 -107 71 -107 322 0 231 2 243 57 293 40 38 338 210 376 218 18 4
43 5 57 3 14 -2 106 -51 206 -109z"/>
<path d="M645 1177 c-4 -18 -5 -53 -3 -77 l3 -45 44 58 43 57 68 0 68 0 6 -31
c3 -17 6 -143 6 -280 l0 -249 55 0 55 0 2 278 3 277 109 0 110 0 40 -52 c23
-28 44 -52 49 -52 4 -1 7 33 7 74 l0 75 -330 0 -329 0 -6 -33z"/>
<path d="M1080 910 l0 -60 80 0 80 0 0 60 0 60 -80 0 -80 0 0 -60z"/>
</g>
</svg>
